<?xml version="1.0" encoding="utf-8"?>
<!-- Generator: Adobe Illustrator 26.0.3, SVG Export Plug-In . SVG Version: 6.00 Build 0)  -->
<svg version="1.1" id="Calque_1" xmlns="http://www.w3.org/2000/svg" xmlns:xlink="http://www.w3.org/1999/xlink" x="0px" y="0px"
	 viewBox="0 0 400 34.2" style="enable-background:new 0 0 400 34.2;" xml:space="preserve">
<style type="text/css">
		.st0{fill:#3B82F6;}
		.st1{fill:#3B82F6;}
</style>
<g id="Groupe_467" transform="translate(0 15.389)">
	<path id="Tracé_3158" class="st0" d="M175.9-2.8h48.3v-8.7h-48.3V-2.8z"/>
	<g>
		<g id="Groupe_466" transform="translate(0 -15.389)">
			<g id="Groupe_465" transform="translate(0)">
				<path id="Tracé_3159" class="st1" d="M227.3,3.8v8.7h36.6c-0.8,1.1-1.5,2.3-2.2,3.3c-2.6,4-4,5.9-5.9,5.9H127
					c0.8-1.1,1.5-2.3,2.2-3.3c2.6-4,4-5.9,5.9-5.9H172V3.8h-36.9c-6.9,0-10.3,5.5-13.2,9.9c-3.1,4.9-5.3,7.9-9.7,7.9H0.7v8.7h255.1
					c6.9,0,10.3-5.5,13.2-9.9c3.1-4.9,5.3-7.9,9.7-7.9h120.6V3.8H227.3z"/>
			</g>
		</g>
	</g>
</g>
</svg>
