<?xml version="1.0" encoding="utf-8"?>
<!-- Generator: Adobe Illustrator 26.0.3, SVG Export Plug-In . SVG Version: 6.00 Build 0)  -->
<svg version="1.1" id="Calque_1" fill="#FE4000" xmlns="http://www.w3.org/2000/svg"
	xmlns:xlink="http://www.w3.org/1999/xlink" x="0px" y="0px"
	viewBox="0 0 400 34.2" style="enable-background:new 0 0 400 34.2;" xml:space="preserve">
<path d="M311.8,10.1L301.7,32h5l1.2-2.5h10.9L320,32h5l-10.1-21.9H311.8z M309.8,25l3.4-7.3l3.4,7.3H309.8z M204.8,10.1L194.7,32h5
	l1.2-2.5h10.9L213,32h5l-10.1-21.9H204.8z M202.8,25l3.4-7.3l3.4,7.3H202.8z M48.6,31.9h4.5V10.1h-4.5V31.9z M49.6,11.1h2.5V31h-2.5
	V11.1z M344.8,23.8l-12.3-13.7h-3.2V32h4.5V18.2L346,31.9h3.3V10.1h-4.5V23.8z M398.1,17.9c0-4.8-3-7.8-7.8-7.8h-11.6V32h4.5v-6.2
	h5.1l4.3,6.2h5.5l-4.7-6.7C396.3,24.2,398.1,21.6,398.1,17.9z M390.2,21.2h-7.1v-6.7h7.1c1.2,0,2,0.3,2.5,0.8s0.8,1.4,0.8,2.6
	s-0.3,2-0.8,2.5C392.3,21,391.4,21.2,390.2,21.2z M1.9,31.9H20v-4.5H6.4v-4.2H20v-4.5H6.4v-4.2H20V10H1.9V31.9z M2.9,11.1H19v2.5
	H5.4v6.2H19v2.5H5.4v6.2H19V31H2.9V11.1z M355,31.9h18.1v-4.5h-13.6v-4.2h13.6v-4.5h-13.6v-4.2h13.6V10H355V31.9z M25.6,31.9h4.5
	v-8.7h12.4v-4.5H30.1v-4.2h13.6V10H25.6V31.9z M26.6,11.1h16.1v2.5H29.1v6.2h12.4v2.5H29.1V31h-2.5V11.1z M74.2,23.8L61.9,10.1h-3.2
	V32h4.5V18.2l12.2,13.7h3.3V10.1h-4.5C74.2,10.1,74.2,23.8,74.2,23.8z M75.2,11.1h2.5V31h-1.8L62.2,15.6v15.3h-2.5V11.1h1.8
	l13.7,15.3V11.1z M130.1,17.9c0-4.8-3-7.8-7.8-7.8h-11.6V32h4.5v-6.2h5.1l4.3,6.2h5.5l-4.7-6.7C128.3,24.2,130.1,21.6,130.1,17.9z
	 M125,24.3l-1.2,0.4l4.4,6.2h-3l-4.3-6.2h-6.6v6.2h-2.5V11.1h10.6c1.1,0,2.1,0.2,2.9,0.5s1.6,0.8,2.1,1.3c0.6,0.6,1,1.3,1.3,2.1
	c0.3,0.8,0.5,1.8,0.5,2.9c0,0.8-0.1,1.6-0.3,2.3c-0.2,0.7-0.5,1.3-0.8,1.8C127.3,23.1,126.3,23.8,125,24.3z M172,31.9h18.1v-4.5
	h-13.6v-4.2h13.6v-4.5h-13.6v-4.2h13.6V10H172V31.9z M163.7,20.2c-1.7-0.9-4.1-1.4-7.1-1.4c-2.8,0-4.2-0.5-4.9-0.8
	c-0.8-0.5-0.9-0.9-0.9-1.3s0.1-0.8,0.9-1.3c1.3-0.7,3.4-0.8,4.9-0.8c1.8,0,3.4,0.3,4.4,0.8c0.8,0.4,1.2,1,1.4,1.7l4.4-0.9
	c-0.5-2-1.7-3.7-3.6-4.7c-1.7-0.9-3.9-1.4-6.5-1.4c-2.9,0-5.3,0.5-7,1.4c-2.1,1.1-3.3,3-3.3,5.2s1.2,4.1,3.3,5.2
	c1.7,0.9,4.1,1.4,7,1.4c2.7,0,4.2,0.5,4.9,0.8c0.8,0.5,0.9,0.9,0.9,1.3s-0.1,0.8-0.9,1.2c-1.3,0.7-3.4,0.8-4.9,0.8
	c-1.8,0-3.3-0.3-4.3-0.8c-0.8-0.4-1.2-1-1.4-1.7l-4.4,0.9c0.4,2,1.7,3.7,3.6,4.7c1.7,0.9,3.9,1.4,6.5,1.4c3,0,5.3-0.5,7.1-1.4
	c2.1-1.1,3.2-3,3.2-5.2C166.9,23.1,165.8,21.3,163.7,20.2z M241,14.6c1.7,0,3.2,0.3,4.2,1.1c1,0.6,1.6,1.6,1.9,2.9l4.3-1.2
	c-0.3-1.2-0.8-2.2-1.4-3.1c-0.6-0.9-1.4-1.7-2.3-2.3c-1.8-1.2-4.1-1.8-6.7-1.8c-1.6,0-3.1,0.2-4.5,0.7s-2.6,1.2-3.6,2.2
	s-1.7,2.2-2.2,3.6c-0.4,1.3-0.7,2.8-0.7,4.5c0,1.6,0.2,3.1,0.7,4.5s1.2,2.6,2.2,3.6s2.2,1.7,3.6,2.2c1.3,0.4,2.8,0.7,4.5,0.7
	c2.7,0,4.9-0.6,6.7-1.8c0.9-0.6,1.7-1.4,2.3-2.3s1.1-1.9,1.4-3.1l-4.3-1.2c-0.3,1.3-1,2.3-1.9,2.9c-1,0.7-2.4,1.1-4.2,1.1
	c-4.3,0-6.4-2.1-6.4-6.4S236.6,14.6,241,14.6z M260.8,10.1h-4.5V32h18.1v-4.5h-13.6V10.1z M102.7,13c-1-1-2.2-1.7-3.6-2.2
	c-1.3-0.5-2.8-0.7-4.5-0.7c-1.6,0-3.1,0.2-4.5,0.7s-2.6,1.3-3.6,2.2c-1,1-1.7,2.2-2.2,3.6c-0.4,1.3-0.7,2.8-0.7,4.5
	c0,1.6,0.2,3.1,0.7,4.5s1.2,2.6,2.2,3.6s2.2,1.7,3.6,2.2c1.3,0.4,2.8,0.7,4.5,0.7c1.6,0,3.1-0.2,4.5-0.7s2.6-1.2,3.6-2.2
	s1.7-2.2,2.2-3.6c0.5-1.3,0.7-2.8,0.7-4.5c0-1.6-0.2-3.1-0.7-4.5C104.4,15.2,103.7,13.9,102.7,13z M104,25.1c-0.5,1.3-1.1,2.3-2,3.2
	c-0.8,0.9-1.9,1.5-3.2,2c-1.3,0.4-2.7,0.6-4.2,0.6c-1.4,0-2.8-0.2-4.2-0.6c-1.3-0.5-2.3-1.1-3.2-2c-0.9-0.8-1.5-1.9-2-3.2
	c-0.4-1.3-0.6-2.7-0.6-4.2c0-1.4,0.2-2.8,0.6-4.2c0.5-1.2,1.1-2.3,2-3.2c0.8-0.9,1.9-1.5,3.2-2c1.2-0.4,2.6-0.6,4.1-0.6
	s2.9,0.2,4.1,0.6c1.3,0.5,2.3,1.1,3.2,2c0.9,0.8,1.5,1.9,2,3.2c0.4,1.2,0.6,2.6,0.6,4.1C104.6,22.5,104.4,23.9,104,25.1z M279,31.9
	h18.1v-4.5h-13.6v-4.2h13.6v-4.5h-13.6v-4.2h13.6V10H279V31.9z M122.2,13.6h-8.1v8.6h8.1c1.5,0,2.6-0.4,3.2-1.1
	c0.7-0.7,1.1-1.8,1.1-3.2c0-1.4-0.4-2.5-1.1-3.2C124.8,13.9,123.7,13.6,122.2,13.6z M124.8,20.4c-0.5,0.5-1.4,0.8-2.5,0.8h-7.1v-6.7
	h7.1c1.2,0,2,0.3,2.5,0.8s0.8,1.4,0.8,2.6C125.6,19.1,125.3,19.9,124.8,20.4z M100.2,15.4c-0.7-0.6-1.5-1.1-2.4-1.4
	c-0.9-0.3-2-0.4-3.2-0.4s-2.3,0.2-3.2,0.4c-0.9,0.3-1.8,0.8-2.4,1.4c-0.6,0.7-1.1,1.5-1.4,2.4s-0.4,2-0.4,3.2s0.2,2.3,0.4,3.2
	c0.3,0.9,0.8,1.8,1.4,2.4c0.7,0.6,1.5,1.1,2.4,1.4s2,0.4,3.2,0.4s2.2-0.2,3.2-0.4c0.9-0.3,1.7-0.8,2.4-1.4c0.6-0.7,1.1-1.5,1.4-2.4
	s0.4-2,0.4-3.2s-0.2-2.2-0.4-3.2C101.4,16.9,100.9,16.1,100.2,15.4z M94.7,27.4c-4.3,0-6.4-2.1-6.4-6.4s2.1-6.4,6.4-6.4
	s6.4,2.1,6.4,6.4S99,27.4,94.7,27.4z M6.4,6.8h13.7V2.3H6.4V6.8z M7.4,3.3h11.7v2.6H7.4V3.3z"/>
</svg>